<?xml version="1.0" encoding="UTF-8" standalone="no"?>
<!-- Generator: Adobe Illustrator 26.3.1, SVG Export Plug-In . SVG Version: 6.00 Build 0)  -->

<svg
   version="1.1"
   id="Слой_1"
   x="0px"
   y="0px"
   viewBox="0 0 620.40051 351.20001"
   xml:space="preserve"
   sodipodi:docname="fdf_qr.svg"
   inkscape:version="1.4.2 (ebf0e940, 2025-05-08)"
   width="620.40051"
   height="351.20001"
   xmlns:inkscape="http://www.inkscape.org/namespaces/inkscape"
   xmlns:sodipodi="http://sodipodi.sourceforge.net/DTD/sodipodi-0.dtd"
   xmlns="http://www.w3.org/2000/svg"
   xmlns:svg="http://www.w3.org/2000/svg"><defs
   id="defs54" /><sodipodi:namedview
   id="namedview54"
   pagecolor="#ffffff"
   bordercolor="#000000"
   borderopacity="0.25"
   inkscape:showpageshadow="2"
   inkscape:pageopacity="0.0"
   inkscape:pagecheckerboard="0"
   inkscape:deskcolor="#d1d1d1"
   inkscape:zoom="1.1885714"
   inkscape:cx="309.19471"
   inkscape:cy="175"
   inkscape:window-width="1920"
   inkscape:window-height="1021"
   inkscape:window-x="3841"
   inkscape:window-y="31"
   inkscape:window-maximized="0"
   inkscape:current-layer="layer1"
   showguides="true" />
<style
   type="text/css"
   id="style1">
	.st0{fill:#020203;}
	.st1{fill:#FFFFFF;}
</style>
<path
   class="st0"
   d="m 150.80051,130.9 h 17.2 l -8.6,-23.7 z"
   id="path1" />
<path
   class="st0"
   d="M 587.80051,0 H 32.600511 c -18,0 -32.60000035038,14.6 -32.60000035038,32.6 v 286 C -0.09948935,336.6 14.500511,351.2 32.500511,351.2 H 587.80051 c 18,0 32.6,-14.6 32.6,-32.6 v -286 c 0,-18 -14.6,-32.6 -32.6,-32.6 z m -419.4,46.5 18.3,9.8 -18.3,9.8 z m -39,0 18.3,9.8 -18.3,9.8 z m -5.5,53.9 c 2.6,1.4 4.7,3.4 6.2,6 1.5,2.5 2.4,5.5 2.8,8.8 h -6.7 c -0.3,-2.4 -0.9,-4.4 -1.8,-6.1 -0.9,-1.7 -2.1,-3 -3.8,-4 -1.6,-0.9 -3.8,-1.4 -6.4,-1.4 -2.3,0 -4.2,0.4 -6,1.3 -1.7,0.9 -3.1,2.1 -4.3,3.7 -1.1,1.6 -2,3.5 -2.6,5.7 -0.6,2.2 -0.9,4.7 -0.9,7.4 v 5.1 c 0,2.5 0.3,4.8 0.8,7 0.5,2.2 1.3,4.1 2.4,5.8 1.1,1.6 2.4,2.9 4.1,3.9 1.6,0.9 3.6,1.4 5.9,1.4 2.9,0 5.1,-0.4 6.8,-1.3 1.7,-0.9 3,-2.2 3.8,-3.9 0.9,-1.8 1.6,-3.9 1.9,-6.2 h 6.7 c -0.3,3.2 -1.3,6.1 -2.8,8.6 -1.5,2.5 -3.6,4.5 -6.3,6 -2.7,1.5 -6.1,2.2 -10.2,2.2 -3,0 -5.7,-0.6 -8.1,-1.7 -2.4,-1.1 -4.5,-2.7 -6.199999,-4.7 -1.7,-2.1 -3.1,-4.5 -4,-7.4 -0.9,-2.9 -1.4,-6.1 -1.4,-9.7 v -5 c 0,-3.6 0.5,-6.8 1.4,-9.7 0.9,-2.9 2.3,-5.4 4.1,-7.5 1.799999,-2.1 3.899999,-3.7 6.399999,-4.8 2.5,-1.1 5.3,-1.7 8.5,-1.7 3.8,0 7.1,0.7 9.7,2.2 z M 90.500511,46.5 108.80051,56.3 90.500511,66.1 Z m -10.9,87.3 c -0.4,-0.9 -1,-1.8 -1.9,-2.5 -0.9,-0.8 -2.1,-1.4 -3.7,-2.1 -1.6,-0.7 -3.5,-1.4 -5.9,-2 -2.5,-0.8 -4.8,-1.6 -6.8,-2.5 -2,-0.9 -3.8,-2 -5.2,-3.2 -1.4,-1.2 -2.5,-2.5 -3.3,-4.1 -0.8,-1.5 -1.1,-3.3 -1.1,-5.3 0,-2 0.4,-3.8 1.2,-5.5 0.8,-1.7 2,-3.1 3.5,-4.4 1.5,-1.3 3.4,-2.2 5.5,-2.9 2.1,-0.7 4.5,-1 7.1,-1 3.8,0 7,0.7 9.7,2.2 2.7,1.4 4.7,3.3 6.1,5.7 1.4,2.3 2.1,4.8 2.1,7.5 h -6.7 c 0,-1.9 -0.4,-3.6 -1.2,-5.1 -0.8,-1.5 -2,-2.6 -3.7,-3.5 -1.6,-0.9 -3.7,-1.3 -6.3,-1.3 -2.4,0 -4.4,0.4 -5.9,1.1 -1.6,0.7 -2.7,1.7 -3.5,2.9 -0.7,1.2 -1.1,2.6 -1.1,4.2 0,1.1 0.2,2 0.7,2.9 0.5,0.9 1.2,1.7 2.1,2.4 1,0.8 2.2,1.4 3.7,2.1 1.5,0.6 3.3,1.2 5.4,1.8 2.9,0.8 5.4,1.7 7.5,2.7 2.1,1 3.8,2.1 5.2,3.4 1.4,1.2 2.4,2.6 3,4.2 0.7,1.5 1,3.3 1,5.3 0,2.1 -0.4,3.9 -1.3,5.6 -0.8,1.7 -2,3.1 -3.6,4.3 -1.6,1.2 -3.4,2.1 -5.6,2.8 -2.2,0.6 -4.6,0.9 -7.3,0.9 -2.4,0 -4.7,-0.3 -6.9,-1 -2.3,-0.6 -4.3,-1.6 -6.2,-2.9 -1.8,-1.3 -3.3,-2.9 -4.4,-4.8 -1.1,-1.9 -1.6,-4.2 -1.6,-6.7 h 6.7 c 0,1.7 0.3,3.2 1,4.5 0.7,1.2 1.6,2.3 2.8,3.1 1.2,0.8 2.5,1.4 4,1.8 1.5,0.4 3.1,0.5 4.7,0.5 2.3,0 4.3,-0.3 6,-1 1.6,-0.6 2.9,-1.6 3.7,-2.8 0.6,-1.1 1.1,-2.6 1.1,-4.2 0,-1.2 -0.2,-2.2 -0.6,-3.1 z m -16.9,119.4 h -12.6 V 158 h 16.2 l 31.2,77.6 31.099999,-77.6 h 16.3 v 95.2 h -12.6 v -37.1 l 1.2,-40 -31.3,77.1 h -9.599999 l -31.1,-77 1.2,39.9 v 37.1 z m 27.8,51.5 v -19.6 l 18.299999,9.8 z m 38.899999,0 v -19.6 l 18.3,9.8 z m 14.6,-154.9 h -6.9 l 19.3,-50.7 h 1.6 v -0.2 h 4.4 l 19.4,50.7 h -6.9 v 0.1 l -4.8,-13.3 h -21.2 z m 24.4,154.9 v -19.6 l 18.3,9.8 z m 59.2,-51.4 h -50.4 v -0.1 h -10.1 V 158 h 59.8 v 10.3 h -47.2 v 30.6 h 41.2 v 10.3 h -41.2 V 243 h 47.9 z m 0,-103.6 h -6.8 l -25.5,-39.1 v 39.1 h -6.7 V 99 h 6.7 l 25.6,39.2 V 99 h 6.7 z m 378.5,156.7 c 0,18 -14.6,32.6 -32.6,32.6 h -267.3 c -18,0 -32.6,-14.6 -32.6,-32.6 V 45.3 c 0,-18.1 14.7,-32.7 32.7,-32.7 h 267.2 c 18,0 32.6,14.6 32.6,32.6 z"
   id="path2" />








































<path
   class="st1"
   d="m 220.60051,99 v 39.2 l -25.6,-39.2 h -6.7 v 50.7 h 6.7 v -39.1 l 25.5,39.1 h 6.8 V 99 Z"
   id="path43" />
<path
   class="st1"
   d="m 136.80051,149.8 h 6.9 l 4.9,-13.4 h 21.2 l 4.8,13.3 v -0.1 h 6.9 l -19.4,-50.7 h -4.4 v 0.2 h -1.6 z m 30.9,-18.9 h -17.2 l 8.6,-23.7 z"
   id="path44" />
<path
   class="st1"
   d="m 99.000511,104.7 c -1.8,2.1 -3.2,4.6 -4.1,7.5 -0.9,2.9 -1.4,6.1 -1.4,9.7 v 5 c 0,3.6 0.5,6.8 1.4,9.7 0.9,2.9 2.3,5.3 4,7.4 1.699999,2 3.799999,3.6 6.199999,4.7 2.4,1.1 5.1,1.7 8.1,1.7 4.1,0 7.5,-0.7 10.2,-2.2 2.7,-1.5 4.8,-3.5 6.3,-6 1.5,-2.5 2.5,-5.4 2.8,-8.6 h -6.7 c -0.3,2.3 -1,4.4 -1.9,6.2 -0.8,1.7 -2.1,3 -3.8,3.9 -1.7,0.9 -3.9,1.3 -6.8,1.3 -2.3,0 -4.3,-0.5 -5.9,-1.4 -1.7,-1 -3,-2.3 -4.1,-3.9 -1.1,-1.7 -1.9,-3.6 -2.4,-5.8 -0.5,-2.2 -0.8,-4.5 -0.8,-7 v -5.1 c 0,-2.7 0.3,-5.2 0.9,-7.4 0.6,-2.2 1.5,-4.1 2.6,-5.7 1.2,-1.6 2.6,-2.8 4.3,-3.7 1.8,-0.9 3.7,-1.3 6,-1.3 2.6,0 4.8,0.5 6.4,1.4 1.7,1 2.9,2.3 3.8,4 0.9,1.7 1.5,3.7 1.8,6.1 h 6.7 c -0.4,-3.3 -1.3,-6.3 -2.8,-8.8 -1.5,-2.6 -3.6,-4.6 -6.2,-6 -2.6,-1.5 -5.9,-2.2 -9.7,-2.2 -3.2,0 -6,0.6 -8.5,1.7 -2.5,1.1 -4.6,2.7 -6.399999,4.8 z"
   id="path45" />
<path
   class="st1"
   d="m 75.100511,143.9 c -1.7,0.7 -3.7,1 -6,1 -1.6,0 -3.2,-0.1 -4.7,-0.5 -1.5,-0.4 -2.8,-1 -4,-1.8 -1.2,-0.8 -2.1,-1.9 -2.8,-3.1 -0.7,-1.3 -1,-2.8 -1,-4.5 h -6.7 c 0,2.5 0.5,4.8 1.6,6.7 1.1,1.9 2.6,3.5 4.4,4.8 1.9,1.3 3.9,2.3 6.2,2.9 2.2,0.7 4.5,1 6.9,1 2.7,0 5.1,-0.3 7.3,-0.9 2.2,-0.7 4,-1.6 5.6,-2.8 1.6,-1.2 2.8,-2.6 3.6,-4.3 0.9,-1.7 1.3,-3.5 1.3,-5.6 0,-2 -0.3,-3.8 -1,-5.3 -0.6,-1.6 -1.6,-3 -3,-4.2 -1.4,-1.3 -3.1,-2.4 -5.2,-3.4 -2.1,-1 -4.6,-1.9 -7.5,-2.7 -2.1,-0.6 -3.9,-1.2 -5.4,-1.8 -1.5,-0.7 -2.7,-1.3 -3.7,-2.1 -0.9,-0.7 -1.6,-1.5 -2.1,-2.4 -0.5,-0.9 -0.7,-1.8 -0.7,-2.9 0,-1.6 0.4,-3 1.1,-4.2 0.8,-1.2 1.9,-2.2 3.5,-2.9 1.5,-0.7 3.5,-1.1 5.9,-1.1 2.6,0 4.7,0.4 6.3,1.3 1.7,0.9 2.9,2 3.7,3.5 0.8,1.5 1.2,3.2 1.2,5.1 h 6.7 c 0,-2.7 -0.7,-5.2 -2.1,-7.5 -1.4,-2.4 -3.4,-4.3 -6.1,-5.7 -2.7,-1.5 -5.9,-2.2 -9.7,-2.2 -2.6,0 -5,0.3 -7.1,1 -2.1,0.7 -4,1.6 -5.5,2.9 -1.5,1.3 -2.7,2.7 -3.5,4.4 -0.8,1.7 -1.2,3.5 -1.2,5.5 0,2 0.3,3.8 1.1,5.3 0.8,1.6 1.9,2.9 3.3,4.1 1.4,1.2 3.2,2.3 5.2,3.2 2,0.9 4.3,1.7 6.8,2.5 2.4,0.6 4.3,1.3 5.9,2 1.6,0.7 2.8,1.3 3.7,2.1 0.9,0.7 1.5,1.6 1.9,2.5 0.4,0.9 0.6,1.9 0.6,3.1 0,1.6 -0.5,3.1 -1.1,4.2 -0.8,1.2 -2.1,2.2 -3.7,2.8 z"
   id="path46" />
<path
   class="st1"
   d="m 179.40051,209.2 h 41.2 v -10.3 h -41.2 v -30.6 h 47.2 V 158 h -47.2 -2.6 -10 v 95.2 h 10.1 v 0.1 h 50.4 V 243 h -47.9 z"
   id="path47" />
<path
   class="st1"
   d="m 92.300511,253.2 h 9.599999 l 31.3,-77.1 -1.2,40 v 37.1 h 12.6 V 158 h -4 -6.8 -5.5 l -31.099999,77.6 -31.2,-77.6 h -5.4 -6.8 -4 v 95.2 h 12.6 v -37.1 l -1.3,-39.9 z"
   id="path48" />
<path
   class="st1"
   d="M 90.200511,46.5 V 66.1 L 108.50051,56.3 Z"
   id="path49" />
<path
   class="st1"
   d="m 129.10051,46.5 v 19.6 l 18.3,-9.8 z"
   id="path50" />
<path
   class="st1"
   d="m 168.10051,46.5 v 19.6 l 18.3,-9.8 z"
   id="path51" />
<path
   class="st1"
   d="m 90.200511,304.7 18.299999,-9.8 -18.299999,-9.8 z"
   id="path52" />
<path
   class="st1"
   d="m 129.10051,304.7 18.3,-9.8 -18.3,-9.8 z"
   id="path53" />
<path
   class="st1"
   d="m 168.10051,304.7 18.3,-9.8 -18.3,-9.8 z"
   id="path54" />
<g
   inkscape:groupmode="layer"
   id="layer1"
   inkscape:label="Layer 1"
   style="display:inline"
   transform="translate(-40.299489,-174.8)"><path
     d="m 328.15384,198.69711 h 10.42341 v 10.45241 h -10.42341 z m 10.42341,0 h 10.4234 v 10.45241 h -10.4234 z m 10.4234,0 h 10.42342 v 10.45241 h -10.42342 z m 10.42342,0 h 10.42341 v 10.45241 h -10.42341 z m 10.42341,0 h 10.4234 v 10.45241 h -10.4234 z m 10.4234,0 h 10.42341 v 10.45241 h -10.42341 z m 10.42341,0 h 10.42342 v 10.45241 h -10.42342 z m 31.27024,0 h 10.42339 v 10.45241 h -10.42339 z m 62.54044,0 h 10.4234 v 10.45241 h -10.4234 z m 10.4234,0 h 10.42341 v 10.45241 h -10.42341 z m 10.42341,0 h 10.4234 v 10.45241 h -10.4234 z m 20.84682,0 h 10.42341 v 10.45241 H 526.1986 Z m 10.42341,0 h 10.42341 v 10.45241 h -10.42341 z m 20.84681,0 h 10.4234 v 10.45241 h -10.4234 z m 10.4234,0 h 10.42343 v 10.45241 h -10.42343 z m 10.42343,0 h 10.42341 v 10.45241 h -10.42341 z m 10.42341,0 h 10.4234 v 10.45241 h -10.4234 z m 10.4234,0 h 10.42341 v 10.45241 h -10.42341 z m 10.42341,0 h 10.4234 v 10.45241 h -10.4234 z m 10.4234,0 h 10.42342 v 10.45241 h -10.42342 z m -291.85543,10.45241 h 10.42341 v 10.45244 h -10.42341 z m 62.54045,0 h 10.42342 v 10.45244 h -10.42342 z m 20.84683,0 h 10.42341 v 10.45244 h -10.42341 z m 52.11704,0 h 10.4234 v 10.45244 h -10.4234 z m 10.4234,0 h 10.42341 v 10.45244 h -10.42341 z m 31.27022,0 h 10.4234 v 10.45244 h -10.4234 z m 10.4234,0 h 10.42342 v 10.45244 h -10.42342 z m 41.69364,0 h 10.4234 v 10.45244 h -10.4234 z m 62.54045,0 h 10.42342 v 10.45244 h -10.42342 z m -291.85543,10.45244 h 10.42341 v 10.45242 h -10.42341 z m 20.84681,0 h 10.42342 v 10.45242 h -10.42342 z m 10.42342,0 h 10.42341 v 10.45242 h -10.42341 z m 10.42341,0 h 10.4234 v 10.45242 h -10.4234 z m 20.84681,0 h 10.42342 v 10.45242 h -10.42342 z m 20.84683,0 h 10.42341 v 10.45242 h -10.42341 z m 10.42341,0 h 10.42339 v 10.45242 h -10.42339 z m 31.27022,0 h 10.42341 v 10.45242 h -10.42341 z m 10.42341,0 h 10.4234 v 10.45242 h -10.4234 z m 62.54044,0 h 10.42341 v 10.45242 H 526.1986 Z m 10.42341,0 h 10.42341 v 10.45242 h -10.42341 z m 20.84681,0 h 10.4234 v 10.45242 h -10.4234 z m 20.84683,0 h 10.42341 v 10.45242 h -10.42341 z m 10.42341,0 h 10.4234 v 10.45242 h -10.4234 z m 10.4234,0 h 10.42341 v 10.45242 h -10.42341 z m 20.84681,0 h 10.42342 v 10.45242 h -10.42342 z m -291.85543,10.45242 h 10.42341 v 10.45242 h -10.42341 z m 20.84681,0 h 10.42342 v 10.45242 h -10.42342 z m 10.42342,0 h 10.42341 v 10.45242 h -10.42341 z m 10.42341,0 h 10.4234 v 10.45242 h -10.4234 z m 20.84681,0 h 10.42342 v 10.45242 h -10.42342 z m 52.11705,0 h 10.42341 v 10.45242 h -10.42341 z m 20.84682,0 h 10.4234 v 10.45242 h -10.4234 z m 10.4234,0 h 10.42341 v 10.45242 h -10.42341 z m 31.27022,0 h 10.4234 v 10.45242 h -10.4234 z m 52.11704,0 h 10.4234 v 10.45242 h -10.4234 z m 20.84683,0 h 10.42341 v 10.45242 h -10.42341 z m 10.42341,0 h 10.4234 v 10.45242 h -10.4234 z m 10.4234,0 h 10.42341 v 10.45242 h -10.42341 z m 20.84681,0 h 10.42342 V 240.5068 H 620.00927 Z M 328.15384,240.5068 h 10.42341 v 10.45241 h -10.42341 z m 20.84681,0 h 10.42342 v 10.45241 h -10.42342 z m 10.42342,0 h 10.42341 v 10.45241 h -10.42341 z m 10.42341,0 h 10.4234 v 10.45241 h -10.4234 z m 20.84681,0 h 10.42342 v 10.45241 h -10.42342 z m 31.27024,0 h 10.42339 v 10.45241 h -10.42339 z m 10.42339,0 h 10.42342 v 10.45241 h -10.42342 z m 10.42342,0 h 10.42341 v 10.45241 h -10.42341 z m 10.42341,0 h 10.42341 v 10.45241 h -10.42341 z m 10.42341,0 h 10.4234 v 10.45241 h -10.4234 z m 10.4234,0 h 10.42341 v 10.45241 h -10.42341 z m 31.27022,0 h 10.4234 v 10.45241 h -10.4234 z m 20.84682,0 h 10.42341 v 10.45241 H 526.1986 Z m 31.27022,0 h 10.4234 v 10.45241 h -10.4234 z m 20.84683,0 h 10.42341 v 10.45241 h -10.42341 z m 10.42341,0 h 10.4234 v 10.45241 h -10.4234 z m 10.4234,0 h 10.42341 v 10.45241 h -10.42341 z m 20.84681,0 h 10.42342 v 10.45241 h -10.42342 z m -291.85543,10.45241 h 10.42341 v 10.45242 h -10.42341 z m 62.54045,0 h 10.42342 v 10.45242 h -10.42342 z m 62.54046,0 h 10.42341 v 10.45242 h -10.42341 z m 10.42341,0 h 10.4234 v 10.45242 h -10.4234 z m 10.4234,0 h 10.42341 v 10.45242 h -10.42341 z m 10.42341,0 h 10.4234 v 10.45242 h -10.4234 z m 20.84681,0 h 10.4234 v 10.45242 h -10.4234 z m 10.4234,0 h 10.42342 v 10.45242 h -10.42342 z m 10.42342,0 h 10.42341 v 10.45242 H 526.1986 Z m 10.42341,0 h 10.42341 v 10.45242 h -10.42341 z m 20.84681,0 h 10.4234 v 10.45242 h -10.4234 z m 62.54045,0 h 10.42342 v 10.45242 h -10.42342 z m -291.85543,10.45242 h 10.42341 v 10.45242 h -10.42341 z m 10.42341,0 h 10.4234 v 10.45242 h -10.4234 z m 10.4234,0 h 10.42342 v 10.45242 h -10.42342 z m 10.42342,0 h 10.42341 v 10.45242 h -10.42341 z m 10.42341,0 h 10.4234 v 10.45242 h -10.4234 z m 10.4234,0 h 10.42341 v 10.45242 h -10.42341 z m 10.42341,0 h 10.42342 v 10.45242 h -10.42342 z m 20.84683,0 h 10.42341 v 10.45242 h -10.42341 z m 20.8468,0 h 10.42342 v 10.45242 h -10.42342 z m 20.84683,0 h 10.42341 v 10.45242 h -10.42341 z m 20.84681,0 h 10.42341 v 10.45242 h -10.42341 z m 20.84681,0 h 10.42341 v 10.45242 h -10.42341 z m 20.84681,0 h 10.42342 v 10.45242 h -10.42342 z m 20.84683,0 h 10.42341 v 10.45242 h -10.42341 z m 20.84681,0 h 10.4234 v 10.45242 h -10.4234 z m 10.4234,0 h 10.42343 v 10.45242 h -10.42343 z m 10.42343,0 h 10.42341 v 10.45242 h -10.42341 z m 10.42341,0 h 10.4234 v 10.45242 h -10.4234 z m 10.4234,0 h 10.42341 v 10.45242 h -10.42341 z m 10.42341,0 h 10.4234 v 10.45242 h -10.4234 z m 10.4234,0 h 10.42342 v 10.45242 h -10.42342 z m -187.62135,10.45242 h 10.42342 v 10.45243 h -10.42342 z m 20.84683,0 h 10.42341 v 10.45243 h -10.42341 z m 20.84681,0 h 10.42341 v 10.45243 h -10.42341 z m 10.42341,0 h 10.4234 v 10.45243 h -10.4234 z m 20.84681,0 h 10.4234 v 10.45243 h -10.4234 z m -166.77453,10.45243 h 10.4234 v 10.45243 h -10.4234 z m 10.4234,0 h 10.42342 v 10.45243 h -10.42342 z m 10.42342,0 h 10.42341 v 10.45243 h -10.42341 z m 20.84681,0 h 10.42341 v 10.45243 h -10.42341 z m 10.42341,0 h 10.42342 v 10.45243 h -10.42342 z m 62.54046,0 h 10.42341 v 10.45243 h -10.42341 z m 41.69362,0 h 10.42341 v 10.45243 h -10.42341 z m 10.42341,0 h 10.4234 v 10.45243 h -10.4234 z m 20.84682,0 h 10.42341 v 10.45243 H 526.1986 Z m 72.96386,0 h 10.42341 v 10.45243 h -10.42341 z m 10.42341,0 h 10.4234 v 10.45243 h -10.4234 z m -281.43203,10.45243 h 10.42341 v 10.4524 h -10.42341 z m 10.42341,0 h 10.4234 v 10.4524 h -10.4234 z m 10.4234,0 h 10.42342 v 10.4524 h -10.42342 z m 20.84683,0 h 10.4234 v 10.4524 h -10.4234 z m 10.4234,0 h 10.42341 v 10.4524 h -10.42341 z m 31.27024,0 h 10.42341 v 10.4524 h -10.42341 z m 41.69363,0 h 10.42341 v 10.4524 h -10.42341 z m 52.11703,0 h 10.4234 v 10.4524 h -10.4234 z m 10.4234,0 h 10.42342 v 10.4524 h -10.42342 z m 10.42342,0 h 10.42341 v 10.4524 H 526.1986 Z m 10.42341,0 h 10.42341 v 10.4524 h -10.42341 z m 10.42341,0 h 10.4234 v 10.4524 h -10.4234 z m 10.4234,0 h 10.4234 v 10.4524 h -10.4234 z m 10.4234,0 h 10.42343 v 10.4524 h -10.42343 z m 10.42343,0 h 10.42341 v 10.4524 h -10.42341 z m 10.42341,0 h 10.4234 v 10.4524 h -10.4234 z m 31.27021,0 h 10.42342 v 10.4524 h -10.42342 z m -260.5852,10.4524 h 10.42341 v 10.45242 h -10.42341 z m 10.42341,0 h 10.4234 v 10.45242 h -10.4234 z m 20.84681,0 h 10.42342 v 10.45242 h -10.42342 z m 10.42342,0 h 10.42341 v 10.45242 h -10.42341 z m 31.27021,0 h 10.42342 v 10.45242 h -10.42342 z m 10.42342,0 h 10.42341 v 10.45242 h -10.42341 z m 41.69363,0 h 10.4234 v 10.45242 h -10.4234 z m 10.4234,0 h 10.42341 v 10.45242 h -10.42341 z m 10.42341,0 h 10.4234 v 10.45242 h -10.4234 z m 10.4234,0 h 10.42342 v 10.45242 h -10.42342 z m 20.84683,0 h 10.42341 v 10.45242 h -10.42341 z m 20.84681,0 h 10.4234 v 10.45242 h -10.4234 z m 20.84683,0 h 10.42341 v 10.45242 h -10.42341 z m 10.42341,0 h 10.4234 v 10.45242 h -10.4234 z m 10.4234,0 h 10.42341 v 10.45242 h -10.42341 z m 10.42341,0 h 10.4234 v 10.45242 h -10.4234 z m -281.43203,10.45242 h 10.42341 v 10.45242 h -10.42341 z m 114.6575,0 h 10.42341 v 10.45242 h -10.42341 z m 31.27022,0 h 10.42341 v 10.45242 h -10.42341 z m 20.84681,0 h 10.42341 v 10.45242 h -10.42341 z m 31.27023,0 h 10.42341 v 10.45242 H 526.1986 Z m 10.42341,0 h 10.42341 v 10.45242 h -10.42341 z m 31.27021,0 h 10.42343 v 10.45242 h -10.42343 z m 20.84684,0 h 10.4234 v 10.45242 h -10.4234 z m 31.27021,0 h 10.42342 v 10.45242 h -10.42342 z m -291.85543,10.45242 h 10.42341 v 10.45243 h -10.42341 z m 20.84681,0 h 10.42342 v 10.45243 h -10.42342 z m 20.84683,0 h 10.4234 v 10.45243 h -10.4234 z m 20.84681,0 h 10.42342 v 10.45243 h -10.42342 z m 10.42342,0 h 10.42341 v 10.45243 h -10.42341 z m 10.42341,0 h 10.42341 v 10.45243 h -10.42341 z m 31.27022,0 h 10.42341 v 10.45243 h -10.42341 z m 20.84682,0 h 10.4234 v 10.45243 h -10.4234 z m 10.4234,0 h 10.42341 v 10.45243 h -10.42341 z m 31.27022,0 h 10.4234 v 10.45243 h -10.4234 z m 31.27023,0 h 10.42341 v 10.45243 h -10.42341 z m 10.42341,0 h 10.4234 v 10.45243 h -10.4234 z m 20.8468,0 h 10.42343 v 10.45243 h -10.42343 z m 31.27024,0 h 10.42341 v 10.45243 h -10.42341 z m 10.42341,0 h 10.4234 v 10.45243 h -10.4234 z m 10.4234,0 h 10.42342 v 10.45243 h -10.42342 z m -281.43202,10.45243 h 10.4234 v 10.45243 h -10.4234 z m 41.69363,0 h 10.42341 v 10.45243 h -10.42341 z m 31.27024,0 h 10.42341 v 10.45243 h -10.42341 z m 10.42341,0 h 10.42339 v 10.45243 h -10.42339 z m 10.42339,0 h 10.42342 v 10.45243 h -10.42342 z m 10.42342,0 h 10.42341 v 10.45243 h -10.42341 z m 83.38726,0 h 10.42341 v 10.45243 H 526.1986 Z m 31.27022,0 h 10.4234 v 10.45243 h -10.4234 z m 10.4234,0 h 10.42343 v 10.45243 h -10.42343 z m 20.84684,0 h 10.4234 v 10.45243 h -10.4234 z m 10.4234,0 h 10.42341 v 10.45243 h -10.42341 z m 20.84681,0 h 10.42342 v 10.45243 h -10.42342 z m -281.43202,10.45243 h 10.4234 v 10.45241 h -10.4234 z m 31.27023,0 h 10.4234 v 10.45241 h -10.4234 z m 20.84681,0 h 10.42342 v 10.45241 h -10.42342 z m 10.42342,0 h 10.42341 v 10.45241 h -10.42341 z m 10.42341,0 h 10.42341 v 10.45241 h -10.42341 z m 10.42341,0 h 10.42339 v 10.45241 h -10.42339 z m 31.27022,0 h 10.42341 v 10.45241 h -10.42341 z m 10.42341,0 h 10.4234 v 10.45241 h -10.4234 z m 10.4234,0 h 10.42341 v 10.45241 h -10.42341 z m 20.84681,0 h 10.42341 v 10.45241 h -10.42341 z m 10.42341,0 h 10.4234 v 10.45241 h -10.4234 z m 10.4234,0 h 10.42342 v 10.45241 h -10.42342 z m 10.42342,0 h 10.42341 v 10.45241 H 526.1986 Z m 20.84682,0 h 10.4234 v 10.45241 h -10.4234 z m 10.4234,0 h 10.4234 v 10.45241 h -10.4234 z m 10.4234,0 h 10.42343 v 10.45241 h -10.42343 z m 10.42343,0 h 10.42341 v 10.45241 h -10.42341 z m 10.42341,0 h 10.4234 v 10.45241 h -10.4234 z m 20.84681,0 h 10.4234 v 10.45241 h -10.4234 z m 10.4234,0 h 10.42342 v 10.45241 h -10.42342 z m -281.43202,10.45241 h 10.4234 v 10.45242 h -10.4234 z m 10.4234,0 h 10.42342 v 10.45242 h -10.42342 z m 10.42342,0 h 10.42341 v 10.45242 h -10.42341 z m 20.84681,0 h 10.42341 v 10.45242 h -10.42341 z m 20.84683,0 h 10.42341 v 10.45242 h -10.42341 z m 20.84682,0 h 10.42339 v 10.45242 h -10.42339 z m 10.42339,0 h 10.42342 v 10.45242 h -10.42342 z m 31.27024,0 h 10.4234 v 10.45242 h -10.4234 z m 10.4234,0 h 10.42341 v 10.45242 h -10.42341 z m 10.42341,0 h 10.4234 v 10.45242 h -10.4234 z m 41.69363,0 h 10.42341 v 10.45242 H 526.1986 Z m 10.42341,0 h 10.42341 v 10.45242 h -10.42341 z m 41.69364,0 h 10.42341 v 10.45242 h -10.42341 z m 10.42341,0 h 10.4234 v 10.45242 h -10.4234 z m -250.16181,10.45242 h 10.4234 v 10.45241 h -10.4234 z m 20.84682,0 h 10.42341 v 10.45241 h -10.42341 z m 31.27022,0 h 10.42342 v 10.45241 h -10.42342 z m 31.27024,0 h 10.42339 v 10.45241 h -10.42339 z m 10.42339,0 h 10.42342 v 10.45241 h -10.42342 z m 31.27024,0 h 10.4234 v 10.45241 h -10.4234 z m 41.69362,0 h 10.4234 v 10.45241 h -10.4234 z m 31.27023,0 h 10.42341 v 10.45241 h -10.42341 z m 10.42341,0 h 10.4234 v 10.45241 h -10.4234 z m 20.8468,0 h 10.42343 v 10.45241 h -10.42343 z m 10.42343,0 h 10.42341 v 10.45241 h -10.42341 z m 10.42341,0 h 10.4234 v 10.45241 h -10.4234 z m 31.27021,0 h 10.42342 v 10.45241 h -10.42342 z m -271.00862,10.45241 h 10.42342 v 10.45242 h -10.42342 z m 31.27023,0 h 10.42341 v 10.45242 h -10.42341 z m 20.84683,0 h 10.42341 v 10.45242 h -10.42341 z m 10.42341,0 h 10.42341 v 10.45242 h -10.42341 z m 10.42341,0 h 10.42339 v 10.45242 h -10.42339 z m 10.42339,0 h 10.42342 v 10.45242 h -10.42342 z m 10.42342,0 h 10.42341 v 10.45242 h -10.42341 z m 31.27022,0 h 10.42341 v 10.45242 h -10.42341 z m 62.54045,0 h 10.42341 v 10.45242 h -10.42341 z m 10.42341,0 h 10.4234 v 10.45242 h -10.4234 z m 20.8468,0 h 10.42343 v 10.45242 h -10.42343 z m 31.27024,0 h 10.42341 v 10.45242 h -10.42341 z m -271.00862,10.45242 h 10.42341 v 10.45243 h -10.42341 z m 20.84681,0 h 10.42342 v 10.45243 h -10.42342 z m 20.84683,0 h 10.4234 v 10.45243 h -10.4234 z m 10.4234,0 h 10.42341 v 10.45243 h -10.42341 z m 10.42341,0 h 10.42342 v 10.45243 h -10.42342 z m 31.27024,0 h 10.42339 v 10.45243 h -10.42339 z m 10.42339,0 h 10.42342 v 10.45243 h -10.42342 z m 10.42342,0 h 10.42341 v 10.45243 h -10.42341 z m 20.84682,0 h 10.4234 v 10.45243 h -10.4234 z m 10.4234,0 h 10.42341 v 10.45243 h -10.42341 z m 83.38726,0 h 10.4234 v 10.45243 h -10.4234 z m 10.4234,0 h 10.42343 v 10.45243 h -10.42343 z m 10.42343,0 h 10.42341 v 10.45243 h -10.42341 z m 20.84681,0 h 10.42341 V 397.2931 H 599.16246 Z M 369.84748,397.2931 h 10.4234 v 10.45243 h -10.4234 z m 41.69364,0 h 10.42341 v 10.45243 h -10.42341 z m 20.8468,0 h 10.42342 v 10.45243 h -10.42342 z m 31.27024,0 h 10.4234 v 10.45243 h -10.4234 z m 10.4234,0 h 10.42341 v 10.45243 h -10.42341 z m 10.42341,0 h 10.4234 v 10.45243 h -10.4234 z m 10.4234,0 h 10.42341 v 10.45243 h -10.42341 z m 10.42341,0 h 10.4234 v 10.45243 h -10.4234 z m 20.84682,0 h 10.42341 v 10.45243 H 526.1986 Z m 20.84682,0 h 10.4234 v 10.45243 h -10.4234 z m 10.4234,0 h 10.4234 v 10.45243 h -10.4234 z m 10.4234,0 h 10.42343 v 10.45243 h -10.42343 z m 20.84684,0 h 10.4234 v 10.45243 h -10.4234 z m 10.4234,0 h 10.42341 v 10.45243 h -10.42341 z m 10.42341,0 h 10.4234 v 10.45243 h -10.4234 z m -271.00862,10.45243 h 10.4234 v 10.45242 h -10.4234 z m 10.4234,0 h 10.42342 v 10.45242 h -10.42342 z m 10.42342,0 h 10.42341 v 10.45242 h -10.42341 z m 31.27022,0 h 10.42342 v 10.45242 h -10.42342 z m 20.84683,0 h 10.42341 v 10.45242 h -10.42341 z m 10.42341,0 h 10.42339 v 10.45242 h -10.42339 z m 10.42339,0 h 10.42342 v 10.45242 h -10.42342 z m 41.69364,0 h 10.42341 v 10.45242 h -10.42341 z m 10.42341,0 h 10.4234 v 10.45242 h -10.4234 z m 10.4234,0 h 10.42341 v 10.45242 h -10.42341 z m 10.42341,0 h 10.4234 v 10.45242 h -10.4234 z m 10.4234,0 h 10.42342 v 10.45242 h -10.42342 z m 20.84683,0 h 10.42341 v 10.45242 h -10.42341 z m 10.42341,0 h 10.4234 v 10.45242 h -10.4234 z m 10.4234,0 h 10.4234 v 10.45242 h -10.4234 z m 10.4234,0 h 10.42343 v 10.45242 h -10.42343 z m 10.42343,0 h 10.42341 v 10.45242 h -10.42341 z m 20.84681,0 h 10.42341 v 10.45242 h -10.42341 z m 10.42341,0 h 10.4234 v 10.45242 h -10.4234 z m -198.04475,10.45242 h 10.42341 v 10.4524 h -10.42341 z m 10.42341,0 h 10.42339 v 10.4524 h -10.42339 z m 20.84681,0 h 10.42341 v 10.4524 h -10.42341 z m 10.42341,0 h 10.42341 v 10.4524 h -10.42341 z m 10.42341,0 h 10.4234 v 10.4524 h -10.4234 z m 31.27021,0 h 10.42341 v 10.4524 h -10.42341 z m 10.42341,0 h 10.4234 v 10.4524 h -10.4234 z m 10.4234,0 h 10.42342 v 10.4524 h -10.42342 z m 20.84683,0 h 10.42341 v 10.4524 h -10.42341 z m 41.69364,0 h 10.42341 v 10.4524 h -10.42341 z m 10.42341,0 h 10.4234 v 10.4524 h -10.4234 z m 20.84681,0 h 10.4234 v 10.4524 h -10.4234 z m 10.4234,0 h 10.42342 v 10.4524 h -10.42342 z m -291.85543,10.4524 h 10.42341 v 10.45242 h -10.42341 z m 10.42341,0 h 10.4234 v 10.45242 h -10.4234 z m 10.4234,0 h 10.42342 v 10.45242 h -10.42342 z m 10.42342,0 h 10.42341 v 10.45242 h -10.42341 z m 10.42341,0 h 10.4234 v 10.45242 h -10.4234 z m 10.4234,0 h 10.42341 v 10.45242 h -10.42341 z m 10.42341,0 h 10.42342 v 10.45242 h -10.42342 z m 31.27024,0 h 10.42339 v 10.45242 h -10.42339 z m 10.42339,0 h 10.42342 v 10.45242 h -10.42342 z m 20.84683,0 h 10.42341 v 10.45242 h -10.42341 z m 10.42341,0 h 10.4234 v 10.45242 h -10.4234 z m 52.11702,0 h 10.42342 v 10.45242 h -10.42342 z m 10.42342,0 h 10.42341 v 10.45242 H 526.1986 Z m 10.42341,0 h 10.42341 v 10.45242 h -10.42341 z m 20.84681,0 h 10.4234 v 10.45242 h -10.4234 z m 20.84683,0 h 10.42341 v 10.45242 h -10.42341 z m 20.84681,0 h 10.42341 v 10.45242 h -10.42341 z m 10.42341,0 h 10.4234 v 10.45242 h -10.4234 z m -281.43203,10.45242 h 10.42341 v 10.45243 h -10.42341 z m 62.54045,0 h 10.42342 v 10.45243 h -10.42342 z m 20.84683,0 h 10.42341 v 10.45243 h -10.42341 z m 10.42341,0 h 10.42339 v 10.45243 h -10.42339 z m 52.11703,0 h 10.42341 v 10.45243 h -10.42341 z m 10.42341,0 h 10.4234 v 10.45243 h -10.4234 z m 20.84681,0 h 10.4234 v 10.45243 h -10.4234 z m 31.27023,0 h 10.42341 v 10.45243 h -10.42341 z m 41.69364,0 h 10.42341 v 10.45243 h -10.42341 z m 31.27022,0 h 10.4234 v 10.45243 h -10.4234 z M 328.15384,449.5552 h 10.42341 v 10.45242 h -10.42341 z m 20.84681,0 h 10.42342 v 10.45242 h -10.42342 z m 10.42342,0 h 10.42341 v 10.45242 h -10.42341 z m 10.42341,0 h 10.4234 v 10.45242 h -10.4234 z m 20.84681,0 h 10.42342 v 10.45242 h -10.42342 z m 31.27024,0 h 10.42339 v 10.45242 h -10.42339 z m 10.42339,0 h 10.42342 v 10.45242 h -10.42342 z m 10.42342,0 h 10.42341 v 10.45242 h -10.42341 z m 31.27022,0 h 10.42341 v 10.45242 h -10.42341 z m 10.42341,0 h 10.4234 v 10.45242 h -10.4234 z m 10.4234,0 h 10.42341 v 10.45242 h -10.42341 z m 41.69364,0 h 10.42341 v 10.45242 h -10.42341 z m 10.42341,0 h 10.4234 v 10.45242 h -10.4234 z m 10.4234,0 h 10.4234 v 10.45242 h -10.4234 z m 10.4234,0 h 10.42343 v 10.45242 h -10.42343 z m 10.42343,0 h 10.42341 v 10.45242 h -10.42341 z m 10.42341,0 h 10.4234 v 10.45242 h -10.4234 z m 10.4234,0 h 10.42341 v 10.45242 h -10.42341 z m 20.84681,0 h 10.42342 v 10.45242 h -10.42342 z m -291.85543,10.45242 h 10.42341 v 10.45243 h -10.42341 z m 20.84681,0 h 10.42342 v 10.45243 h -10.42342 z m 10.42342,0 h 10.42341 v 10.45243 h -10.42341 z m 10.42341,0 h 10.4234 v 10.45243 h -10.4234 z m 20.84681,0 h 10.42342 v 10.45243 h -10.42342 z m 20.84683,0 h 10.42341 v 10.45243 h -10.42341 z m 10.42341,0 h 10.42339 v 10.45243 h -10.42339 z m 20.84681,0 h 10.42341 v 10.45243 h -10.42341 z m 62.54044,0 h 10.4234 v 10.45243 h -10.4234 z m 20.84682,0 h 10.42341 v 10.45243 H 526.1986 Z m 52.11705,0 h 10.42341 v 10.45243 h -10.42341 z m 20.84681,0 h 10.42341 v 10.45243 h -10.42341 z m 10.42341,0 h 10.4234 v 10.45243 h -10.4234 z m -281.43203,10.45243 h 10.42341 v 10.45242 h -10.42341 z m 20.84681,0 h 10.42342 v 10.45242 h -10.42342 z m 10.42342,0 h 10.42341 v 10.45242 h -10.42341 z m 10.42341,0 h 10.4234 v 10.45242 h -10.4234 z m 20.84681,0 h 10.42342 v 10.45242 h -10.42342 z m 20.84683,0 h 10.42341 v 10.45242 h -10.42341 z m 52.11704,0 h 10.4234 v 10.45242 h -10.4234 z m 52.11702,0 h 10.42342 v 10.45242 h -10.42342 z m 20.84683,0 h 10.42341 v 10.45242 h -10.42341 z m 31.27021,0 h 10.42343 v 10.45242 h -10.42343 z m 20.84684,0 h 10.4234 v 10.45242 h -10.4234 z m 31.27021,0 h 10.42342 v 10.45242 h -10.42342 z m -291.85543,10.45242 h 10.42341 v 10.45241 h -10.42341 z m 62.54045,0 h 10.42342 v 10.45241 h -10.42342 z m 20.84683,0 h 10.42341 v 10.45241 h -10.42341 z m 10.42341,0 h 10.42339 v 10.45241 h -10.42339 z m 31.27022,0 h 10.42341 v 10.45241 h -10.42341 z m 20.84681,0 h 10.42341 v 10.45241 h -10.42341 z m 10.42341,0 h 10.4234 v 10.45241 h -10.4234 z m 52.11704,0 h 10.42341 v 10.45241 h -10.42341 z m 10.42341,0 h 10.4234 v 10.45241 h -10.4234 z m 31.27023,0 h 10.42341 v 10.45241 h -10.42341 z m 10.42341,0 h 10.4234 v 10.45241 h -10.4234 z m 20.84681,0 h 10.4234 v 10.45241 h -10.4234 z m -281.43203,10.45241 h 10.42341 v 10.45242 h -10.42341 z m 10.42341,0 h 10.4234 v 10.45242 h -10.4234 z m 10.4234,0 h 10.42342 v 10.45242 h -10.42342 z m 10.42342,0 h 10.42341 v 10.45242 h -10.42341 z m 10.42341,0 h 10.4234 v 10.45242 h -10.4234 z m 10.4234,0 h 10.42341 v 10.45242 h -10.42341 z m 10.42341,0 h 10.42342 v 10.45242 h -10.42342 z m 41.69363,0 h 10.42342 v 10.45242 h -10.42342 z m 20.84683,0 h 10.42341 v 10.45242 h -10.42341 z m 20.84681,0 h 10.42341 v 10.45242 h -10.42341 z m 41.69362,0 h 10.42342 v 10.45242 h -10.42342 z m 20.84683,0 h 10.42341 v 10.45242 h -10.42341 z m 10.42341,0 h 10.4234 v 10.45242 h -10.4234 z m 10.4234,0 h 10.4234 v 10.45242 h -10.4234 z m 10.4234,0 h 10.42343 v 10.45242 h -10.42343 z m 41.69365,0 h 10.4234 v 10.45242 h -10.4234 z"
     stroke="transparent"
     fill="#0c0c0d"
     id="path1-7"
     style="display:inline;fill:#000000;stroke-width:1.49112"
     inkscape:label="path1" /></g></svg>
